<?xml version="1.0" encoding="UTF-8"?>
<svg version="1.1" xmlns="http://www.w3.org/2000/svg" width="512" height="512">
<path d="M0 0 C1.32843232 0.75970672 2.64297841 1.54403156 3.9453125 2.34765625 C5.07235596 3.00713257 5.07235596 3.00713257 6.22216797 3.67993164 C8.85398781 5.23167521 11.46231785 6.81871375 14.0703125 8.41015625 C16.15863811 9.67093086 18.24719209 10.93132725 20.3359375 12.19140625 C23.82030532 14.29935532 27.30212828 16.4111147 30.77685547 18.53491211 C39.83089185 24.068489 48.93758481 29.50759104 58.0703125 34.91015625 C70.47275182 42.25180014 82.82039183 49.67663962 95.12109375 57.1875 C99.3628893 59.77481928 103.61746848 62.33714187 107.89187622 64.87017822 C110.4782815 66.40370808 113.05987686 67.94523774 115.64123535 69.48724365 C116.86877695 70.21749884 118.0986239 70.94389507 119.33093262 71.66607666 C132.58310557 79.43574238 132.58310557 79.43574238 136.0703125 86.41015625 C136.30859375 88.765625 136.30859375 88.765625 136.3828125 91.59765625 C136.43888672 92.98017578 136.43888672 92.98017578 136.49609375 94.390625 C135.73155674 99.81252506 133.48467954 103.28345708 129.3046875 106.61328125 C128.15362564 107.31296974 126.99100424 107.99383184 125.8203125 108.66015625 C125.1490332 109.06161865 124.47775391 109.46308105 123.78613281 109.87670898 C122.18488052 110.83090573 120.57861026 111.77670746 118.96875 112.71630859 C115.59655532 114.68702007 112.23910806 116.68208134 108.8828125 118.6796875 C104.79358878 121.11221042 100.70336878 123.54298059 96.60839844 125.96582031 C87.72626221 131.22254001 78.8823063 136.53677291 70.0703125 141.91015625 C58.71208013 148.83301391 47.29229032 155.64718119 35.84716797 162.42529297 C26.04450967 168.23142071 16.26650935 174.07704043 6.50708008 179.95556641 C5.5508374 180.53097168 4.59459473 181.10637695 3.609375 181.69921875 C2.35954834 182.45259521 2.35954834 182.45259521 1.08447266 183.22119141 C-4.03901907 186.2456041 -9.07617927 185.95413411 -14.9296875 185.41015625 C-19.90616653 183.09964813 -22.24059353 180.12625985 -24.9296875 175.41015625 C-25.43584538 172.08332157 -25.43584538 172.08332157 -25.4443512 168.39576721 C-25.45129672 167.71362638 -25.45824225 167.03148555 -25.46539825 166.32867378 C-25.48361461 164.05544781 -25.47341986 161.78327185 -25.46313477 159.51000977 C-25.47019602 157.87517519 -25.47894191 156.24034716 -25.48924255 154.60552979 C-25.51172361 150.17363089 -25.50879983 145.74208932 -25.49992108 141.31015515 C-25.4948069 137.60735021 -25.50210727 133.90461217 -25.50939316 130.20181412 C-25.52638818 121.46513092 -25.52283044 112.72862241 -25.50610352 103.99194336 C-25.48918188 94.98497991 -25.50501812 85.9785011 -25.5373264 76.97159058 C-25.56403444 69.23210969 -25.57129504 61.49277955 -25.56281132 53.75325722 C-25.55788571 49.13359346 -25.56007783 44.51422127 -25.58059883 39.89459419 C-25.59897513 35.54988188 -25.59297382 31.20586585 -25.56839943 26.8611908 C-25.56339769 25.26931034 -25.56686484 23.67737665 -25.57954788 22.08553886 C-25.67868342 8.57109307 -25.67868342 8.57109307 -22.55821228 4.02940369 C-16.41645187 -2.09067946 -8.01172296 -3.92735596 0 0 Z M7.0703125 44.41015625 C7.0703125 76.09015625 7.0703125 107.77015625 7.0703125 140.41015625 C16.44754818 135.05173586 25.8137348 129.6805741 35.1328125 124.22265625 C35.75561096 123.85809326 36.37840942 123.49353027 37.02008057 123.11791992 C46.08201797 117.80816619 55.0759732 112.4029773 63.97558594 106.82397461 C67.84954938 104.39558349 71.73301108 102.00364832 75.69140625 99.71484375 C76.40312988 99.30105469 77.11485352 98.88726562 77.84814453 98.4609375 C79.16262751 97.70133226 80.48232911 96.95065548 81.80810547 96.2109375 C83.70696844 95.14596085 83.70696844 95.14596085 86.0703125 93.41015625 C86.0703125 92.42015625 86.0703125 91.43015625 86.0703125 90.41015625 C83.76666253 88.64854408 83.76666253 88.64854408 80.7109375 86.99609375 C80.14340256 86.66926102 79.57586761 86.34242828 78.99113464 86.00569153 C77.75595475 85.29579349 76.51787134 84.59092954 75.27731323 83.89047241 C71.94165202 82.0064873 68.62702293 80.08599191 65.30859375 78.171875 C64.62374405 77.77831314 63.93889435 77.38475128 63.23329163 76.97926331 C56.25669619 72.96299746 49.37732896 68.79359432 42.5078125 64.59765625 C41.34565852 63.88969859 40.18338725 63.18193342 39.02099609 62.47436523 C34.65985887 59.81871634 30.30044195 57.16024923 25.94091797 54.50195312 C23.11169018 52.77945403 20.27903724 51.06274393 17.4453125 49.34765625 C16.61572021 48.84065186 15.78612793 48.33364746 14.93139648 47.8112793 C14.18059814 47.35793213 13.4297998 46.90458496 12.65625 46.4375 C12.0070459 46.04296631 11.3578418 45.64843262 10.68896484 45.24194336 C9.07714456 44.25780291 9.07714456 44.25780291 7.0703125 44.41015625 Z " fill="#000000" transform="translate(216.9296875,166.58984375)"/>
<path d="M0 0 C4.82833008 2.37027113 8.71159336 5.7789834 10.75 10.875 C11.44590331 16.79017815 11.34185316 20.9333194 8 26 C3.56503628 30.46796531 -1.25470201 33.39900696 -6.875 36.125 C-20.08860093 42.85472783 -31.67736675 51.37979092 -42.40625 61.578125 C-48.40422677 67.17864548 -53.25614622 71.41909702 -61.80859375 71.27734375 C-67.10626228 70.60687233 -70.89853402 68.21443685 -74.4375 64.3125 C-77.04318957 58.78843811 -77.66438864 54.26673772 -75.9375 48.375 C-65.42949606 30.07073508 -42.83299577 17.1684436 -25 7 C-24.34837891 6.62020996 -23.69675781 6.24041992 -23.02539062 5.84912109 C-15.60768307 1.56952661 -8.75137814 -1.8408575 0 0 Z " fill="#000000" transform="translate(180,66)"/>
<path d="M0 0 C16.70543733 11.82744963 28.99444466 32.44377147 38.953125 49.9453125 C39.52281006 50.93072021 39.52281006 50.93072021 40.10400391 51.93603516 C44.16494629 59.04587545 47.63916255 65.56152945 45.953125 73.9453125 C43.96272495 79.60223895 40.80302556 82.23537216 35.765625 85.2578125 C30.25874812 86.60393796 25.08154872 85.96325428 19.98828125 83.52734375 C15.73876083 79.91224337 13.80177075 75.69504683 11.328125 70.7578125 C3.91260088 56.60608442 -4.61022704 44.11484728 -15.625 32.54296875 C-21.61744122 26.11559228 -25.43982373 21.45236476 -25.32421875 12.55078125 C-24.87939959 8.37198715 -23.60106306 6.30608627 -21.046875 2.9453125 C-14.66560918 -2.10652294 -7.54495359 -3.88766692 0 0 Z " fill="#000000" transform="translate(400.046875,105.0546875)"/>
<path d="M0 0 C3.76329342 2.90200358 5.62155478 5.44945476 6.25805664 10.13964844 C6.40051745 13.44431953 6.39589201 16.71628007 6.33203125 20.0234375 C6.31809326 21.22492432 6.30415527 22.42641113 6.28979492 23.66430664 C5.92775375 41.43734389 2.78577587 58.40419516 -2.10546875 75.4609375 C-2.30398438 76.16460449 -2.5025 76.86827148 -2.70703125 77.59326172 C-4.8927498 85.12852641 -6.95693978 91.48012161 -14.10546875 95.4609375 C-19.27258465 97.18330947 -24.21146633 97.11655372 -29.35546875 95.3359375 C-33.53516765 92.4861428 -36.47411199 89.35500779 -38.10546875 84.4609375 C-38.78991605 77.76270661 -37.40046993 72.14482029 -35.29296875 65.8359375 C-30.86878663 51.72253781 -28.73017358 38.39519782 -27.83886719 23.64599609 C-26.8012137 7.31155986 -26.8012137 7.31155986 -20.7421875 0.87109375 C-14.5444471 -4.46872555 -6.81464337 -3.24771191 0 0 Z " fill="#000000" transform="translate(458.10546875,241.5390625)"/>
<path d="M0 0 C3.8131565 4.03745982 5.312486 7.61799654 5.625 13.125 C5.27508696 21.51041616 0.68733288 25.91291404 -5.1875 31.5 C-17.64472743 42.68890478 -31.38310443 51.92216877 -45.875 60.25 C-46.52275391 60.63124023 -47.17050781 61.01248047 -47.83789062 61.40527344 C-55.58763142 65.92122187 -62.73945261 69.1746999 -71.875 67.25 C-75.97893249 65.51203571 -78.23183595 63.14213078 -80.8125 59.5625 C-82.45989701 54.42649755 -83.20313128 49.45265609 -81.08691406 44.34960938 C-77.69109914 38.00313507 -72.93070248 35.57509639 -66.625 32.5 C-52.50812661 25.19909347 -39.96584457 16.73513741 -28.48828125 5.72265625 C-19.6608456 -2.62976044 -11.41308329 -6.94709418 0 0 Z " fill="#000000" transform="translate(402.875,378.75)"/>
<path d="M0 0 C14.52255996 4.81312339 28.90383822 6.74794907 44.07446289 7.76879883 C46.15657086 7.91266397 48.23612911 8.07805836 50.31640625 8.24609375 C51.53013916 8.33173584 52.74387207 8.41737793 53.99438477 8.50561523 C59.16701175 9.54895655 62.32960023 11.9443219 65.6875 15.9375 C68.44478232 21.24782151 69.10127647 25.72118866 67.3125 31.375 C65.29886583 36.11076926 61.97335266 38.88832367 57.375 41.1875 C34.4702024 42.80586703 12.33055697 39.48354398 -9.625 33.1875 C-10.32866699 32.98898437 -11.03233398 32.79046875 -11.75732422 32.5859375 C-19.29258891 30.40021895 -25.64418411 28.33602897 -29.625 21.1875 C-31.1552087 16.59687391 -31.5663765 11.81209862 -29.90625 7.18359375 C-23.09509187 -5.53239904 -11.76315332 -3.95533693 0 0 Z " fill="#000000" transform="translate(204.625,422.8125)"/>
<path d="M0 0 C3.68807589 2.6217409 5.39998447 6.08667215 6.796875 10.27734375 C7.4067001 16.95890574 5.41239884 22.67799534 3.484375 29.02734375 C-0.77023186 43.66067737 -3.40516888 57.89611151 -3.82568359 73.14233398 C-4.03531658 79.48856366 -4.83158294 85.13935172 -8.328125 90.58984375 C-12.36747123 94.36575436 -15.9443138 96.04176704 -21.47265625 96.44140625 C-26.80723093 96.20512185 -29.89976877 94.52558388 -33.79296875 90.9453125 C-40.60250479 82.89081974 -37.724191 68.08771396 -37.203125 58.27734375 C-33.13636296 13.21058171 -33.13636296 13.21058171 -20.765625 0.83984375 C-13.601546 -3.5284971 -7.45204784 -4.05818884 0 0 Z " fill="#000000" transform="translate(85.203125,176.72265625)"/>
<path d="M0 0 C4.24459058 2.58761137 6.32646481 5.5923653 7.8046875 10.28125 C8.80118498 15.41472187 7.91207358 19.87808731 5.19140625 24.3359375 C1.37070838 28.49004533 -2.00397292 31.0799602 -7.76171875 31.60546875 C-13.23472576 31.52093801 -18.36677512 29.60008923 -23.55859375 28.0234375 C-38.04343346 23.80924389 -52.02839869 21.40008894 -67.07543945 20.66943359 C-75.55977739 20.24131084 -81.84149855 19.72925378 -87.80859375 13.3359375 C-90.46857335 8.54797422 -91.40358454 4.79001971 -90.80859375 -0.6640625 C-89.03170366 -5.34008904 -86.56179674 -8.38000989 -82.80859375 -11.6640625 C-59.69584447 -19.36831226 -21.53063514 -9.8407852 0 0 Z " fill="#000000" transform="translate(329.80859375,60.6640625)"/>
<path d="M0 0 C4.71025574 4.89690923 7.51070292 11.04952748 10.56665039 17.04174805 C17.25268832 29.99585858 26.56244053 42.39113208 36.98828125 52.5546875 C41.59264851 57.0737887 43.66575986 60.86803096 44.171875 67.33984375 C44.05660053 71.94313766 42.80508512 75.82193012 39.6796875 79.25390625 C35.14531328 83.20028182 31.3222819 84.052741 25.515625 83.94921875 C18.48863378 83.16082461 14.24686544 79.22221689 9.94140625 73.91796875 C8.03455846 71.58330255 5.99839932 69.43036521 3.92578125 67.2421875 C-6.03346839 56.16315852 -14.00446114 43.53590154 -20.95996094 30.40576172 C-21.7920394 28.85602654 -22.66873072 27.33044149 -23.55078125 25.80859375 C-26.72009116 20.1339355 -28.21139252 15.17588767 -26.88671875 8.6796875 C-24.78383894 3.62419278 -22.03183677 -0.13363734 -16.88671875 -2.3203125 C-11.01098304 -3.80388696 -5.10694047 -3.57380099 0 0 Z " fill="#000000" transform="translate(92.88671875,324.3203125)"/>
</svg>
